<svg version="1.1" id="Layer_1" xmlns="http://www.w3.org/2000/svg" xmlns:xlink="http://www.w3.org/1999/xlink" x="0px" y="0px"
	 width="1024px" viewBox="0 0 2000 546" xml:space="preserve">
<path fill="none" opacity="1.0000" stroke="none" 
	d="
M2001.000000,251.000000 
	C2001.000000,349.647064 2001.000000,448.294098 2001.000000,547.000000 
	C1416.635742,547.000000 832.271484,547.000000 247.646881,546.632751 
	C247.876236,546.181519 248.364120,546.038208 248.855988,546.022888 
	C253.060623,545.891907 257.720428,546.734436 259.746246,541.520630 
	C261.275208,537.585571 263.284698,533.649048 263.786835,529.554565 
	C264.319763,525.209045 262.358215,520.486328 263.187469,516.262329 
	C265.342529,505.284546 266.829926,493.844299 275.822174,485.553162 
	C276.931122,484.530670 277.494812,482.774780 277.989929,481.254150 
	C279.801666,475.690063 281.079102,469.917969 283.294983,464.527252 
	C286.902771,455.750702 292.610443,448.156555 295.186646,438.587952 
	C300.459076,419.004852 307.605042,399.932709 313.632751,380.542328 
	C315.364746,374.970764 315.972931,369.041260 316.984863,363.256378 
	C318.418365,355.061371 319.852783,346.863800 321.075836,338.635986 
	C321.631531,334.897675 321.734009,331.087036 321.940948,327.303680 
	C322.069336,324.957092 321.797485,322.574615 322.078461,320.253418 
	C322.566742,316.219666 323.792023,312.233978 323.910339,308.204742 
	C324.189758,298.690094 324.029083,289.161469 323.971954,279.638977 
	C323.962189,278.015106 323.619507,276.387939 323.368958,274.771820 
	C322.141968,266.857758 318.931915,259.517334 319.552704,250.953476 
	C320.018890,244.522308 316.711517,237.695831 314.544281,231.226166 
	C311.803955,223.045822 308.179749,215.154938 305.587830,206.933945 
	C303.990875,201.868820 303.323120,196.690811 300.175140,192.016068 
	C296.859253,187.091980 294.749359,181.361679 292.038422,176.021255 
	C291.018585,174.012268 289.861481,172.063385 288.641602,170.167740 
	C286.700745,167.151642 284.693634,164.176178 282.644226,161.232437 
	C279.575867,156.825104 276.585754,152.351852 273.291077,148.117767 
	C271.311279,145.573486 268.638885,143.575180 266.592804,141.073807 
	C263.278503,137.022049 260.583160,132.409653 256.964600,128.675339 
	C252.746094,124.321892 247.986282,120.435333 243.157486,116.743645 
	C234.594727,110.197266 225.799667,103.954887 217.109467,97.574875 
	C215.660110,96.510796 214.263336,95.375221 212.818039,94.305420 
	C210.031418,92.242798 207.318527,90.061165 204.403458,88.197289 
	C201.827408,86.550171 198.835159,85.526077 196.352341,83.767197 
	C192.101517,80.755814 188.105011,77.385437 184.431412,74.094437 
	C190.655762,73.134941 196.590805,72.767166 202.215546,71.249397 
	C213.605042,68.176086 224.836716,64.513107 236.114288,61.031090 
	C249.020264,57.046307 260.921448,51.207901 270.753784,41.719810 
	C275.059540,37.564812 274.726349,32.414223 271.222382,27.558765 
	C267.052399,21.780308 260.947937,19.963984 254.809906,18.034246 
	C247.105652,15.612096 239.258255,13.640371 231.575745,11.155462 
	C225.128448,9.070090 218.890991,6.335544 212.442581,4.254162 
	C208.067413,2.841971 203.488052,2.062460 199.000000,1.000000 
	C799.546692,1.000000 1400.093384,1.000000 2001.000000,1.000000 
	C2001.000000,80.030548 2001.000000,159.061646 2000.581055,238.533798 
	C1997.266724,238.728989 1994.372925,238.314819 1991.475830,238.291122 
	C1989.205078,238.272552 1986.923218,239.001282 1984.658936,238.938065 
	C1977.731934,238.744690 1970.809570,238.114059 1963.888916,238.159912 
	C1962.264160,238.170685 1959.637817,239.870895 1959.203613,241.314636 
	C1956.792725,249.330704 1959.664551,253.139099 1968.154785,254.024414 
	C1968.741211,254.085571 1969.311646,254.300522 1970.407227,254.572403 
	C1970.407227,270.322266 1970.407227,285.895905 1970.407227,301.893707 
	C1968.578735,299.338928 1967.027344,297.087555 1965.391724,294.899170 
	C1953.492554,278.977478 1941.227051,263.312408 1929.851074,247.025848 
	C1925.758179,241.166229 1922.775024,236.785202 1914.424805,238.721542 
	C1909.349854,239.898392 1903.641357,238.194519 1898.212036,238.097534 
	C1896.843140,238.073074 1894.638306,238.902481 1894.202026,239.928268 
	C1890.894043,247.707535 1892.809692,251.612808 1900.901611,254.437408 
	C1901.513672,254.651062 1902.344971,254.646759 1902.714600,255.063080 
	C1903.587402,256.045990 1904.850220,257.202026 1904.886230,258.322479 
	C1905.095581,264.823090 1905.112427,271.336151 1904.973999,277.840302 
	C1904.734253,289.097321 1904.196533,300.349365 1904.064819,311.606750 
	C1904.009155,316.361145 1905.015869,321.138672 1904.815063,325.875061 
	C1904.742310,327.592560 1902.897949,330.126556 1901.278809,330.734131 
	C1893.867798,333.515198 1893.956177,333.317932 1893.924316,341.486511 
	C1893.910522,345.014832 1895.136475,346.035583 1898.579102,346.075836 
	C1909.334473,346.201538 1920.084961,346.694946 1930.839111,346.980560 
	C1933.941284,347.062958 1937.407715,347.677429 1938.009521,343.013885 
	C1939.045044,334.989899 1937.764526,332.012543 1932.698364,331.031494 
	C1925.123779,329.564728 1924.906494,329.466614 1925.045166,321.646576 
	C1925.150269,315.717804 1925.800049,309.799988 1925.962891,303.870575 
	C1926.130005,297.784302 1926.000000,291.689880 1926.000000,284.322937 
	C1930.838501,290.494202 1935.032104,295.594971 1938.954590,300.896393 
	C1947.666992,312.671539 1956.757812,324.214691 1964.698730,336.496216 
	C1970.211670,345.022858 1976.305664,349.002930 1986.595581,346.210510 
	C1989.812500,345.337524 1991.124756,344.768158 1991.059082,341.371063 
	C1990.885132,332.372589 1991.000000,323.368530 1991.000000,314.366699 
	C1991.000000,297.185822 1990.999390,280.004974 1991.001221,262.824097 
	C1991.001343,261.658386 1990.823730,260.449341 1991.069092,259.335419 
	C1991.708374,256.435059 1992.266235,253.533905 1996.254272,253.169403 
	C1997.888550,253.020050 1999.421143,251.756622 2001.000000,251.000000 
M1569.943481,279.075409 
	C1569.629028,284.007599 1569.304077,288.939148 1569.002075,293.872101 
	C1568.327515,304.891205 1567.761108,315.918976 1566.854492,326.918793 
	C1566.758179,328.086426 1564.878784,329.589325 1563.515503,330.090027 
	C1556.014160,332.845276 1556.303101,332.771393 1555.882202,341.005157 
	C1555.618652,346.158905 1557.881836,347.239105 1562.270386,347.033264 
	C1571.690430,346.591461 1581.116821,346.216583 1590.544800,346.034607 
	C1599.058105,345.870270 1598.840820,345.993256 1599.089233,337.310059 
	C1599.220825,332.707855 1597.205444,331.162292 1593.032349,330.941315 
	C1591.016113,330.834534 1589.032593,330.106934 1587.016357,329.656433 
	C1588.019653,312.621246 1588.996338,296.039520 1590.056763,278.033875 
	C1598.045654,300.282471 1605.554077,321.193146 1613.025146,341.999786 
	C1619.081055,341.999786 1624.407593,341.930511 1629.731201,342.027679 
	C1632.589722,342.079834 1634.077637,341.054657 1635.113037,338.169952 
	C1640.253906,323.847046 1645.671021,309.623077 1651.016479,295.373871 
	C1652.829590,290.540222 1654.717773,285.734711 1656.571655,280.916321 
	C1658.276611,294.646118 1659.018555,308.063141 1660.056763,321.457245 
	C1660.494263,327.102875 1659.594116,330.738068 1652.759888,331.289429 
	C1648.412720,331.640137 1647.153198,335.515015 1648.008301,342.108154 
	C1648.428955,345.351959 1650.239746,347.008301 1653.566650,347.004303 
	C1666.560669,346.988770 1679.558228,347.135101 1692.544189,346.812653 
	C1694.060425,346.774994 1696.581787,344.358673 1696.819824,342.772247 
	C1698.193726,333.622864 1697.743896,333.194672 1689.101196,330.538361 
	C1688.065552,330.220123 1687.068359,329.777130 1685.989014,329.367615 
	C1684.441040,304.427429 1682.903809,279.661041 1681.326538,254.249969 
	C1688.394897,254.301163 1692.479004,251.499924 1692.617798,243.999878 
	C1692.689087,240.147415 1691.814941,238.042435 1687.879272,238.021545 
	C1676.551514,237.961487 1665.219849,237.869415 1653.898438,238.144089 
	C1652.231567,238.184540 1649.743896,239.786163 1649.117432,241.284836 
	C1646.130493,248.428696 1643.511230,255.737747 1641.028687,263.078461 
	C1636.229004,277.271454 1631.608765,291.525177 1626.755249,306.235077 
	C1624.345337,299.613647 1622.111572,293.713318 1620.045898,287.754669 
	C1614.638550,272.157104 1609.385376,256.505127 1603.800537,240.971924 
	C1603.312988,239.616119 1600.856323,238.163589 1599.285522,238.130692 
	C1587.795776,237.890167 1576.297729,237.932175 1564.805176,238.088257 
	C1563.375122,238.107681 1561.384766,238.931061 1560.635010,240.043274 
	C1556.269409,246.518768 1559.073486,253.063934 1566.630127,253.919388 
	C1570.303711,254.335251 1571.288574,256.003143 1571.037231,259.374847 
	C1570.571411,265.622925 1570.328735,271.887634 1569.943481,279.075409 
M1832.514526,251.032578 
	C1827.079956,247.302322 1822.825439,242.220444 1815.902344,240.229401 
	C1797.120728,234.827988 1779.055420,234.475479 1762.549683,246.260803 
	C1749.800049,255.364059 1744.077881,269.059113 1742.264038,283.956421 
	C1741.171143,292.932373 1742.121704,302.033356 1744.599731,311.262604 
	C1748.564331,326.029083 1757.750122,335.750092 1770.097778,342.864136 
	C1782.893188,350.236145 1796.952881,349.289459 1810.622559,345.576935 
	C1822.488281,342.354340 1832.525269,336.131714 1839.087158,325.026672 
	C1843.520386,317.524414 1845.148193,309.593353 1846.296753,301.049011 
	C1848.013184,288.279297 1847.303467,276.207550 1841.252563,264.774384 
	C1838.834229,260.205078 1835.730713,255.998474 1832.514526,251.032578 
M1127.527222,328.000000 
	C1124.212891,328.000000 1120.898560,328.000000 1116.864746,328.000000 
	C1116.864746,318.865417 1116.864746,310.016785 1116.864746,301.000000 
	C1120.718994,301.000000 1123.713745,301.098907 1126.699707,300.979980 
	C1133.454102,300.710876 1140.212769,300.438171 1146.947510,299.894714 
	C1148.016113,299.808502 1149.604248,298.460754 1149.855835,297.428955 
	C1150.548584,294.589325 1150.836914,291.615479 1150.964600,288.680786 
	C1151.277588,281.488403 1150.732056,280.832794 1143.528442,281.043335 
	C1134.484497,281.307648 1125.449829,281.888489 1116.110229,282.347534 
	C1116.559814,273.040009 1116.968750,264.574738 1117.395142,255.747360 
	C1125.703247,256.179260 1133.627930,256.506470 1141.532715,257.098450 
	C1142.650635,257.182220 1144.059204,258.334503 1144.658325,259.379242 
	C1145.939575,261.613708 1146.835693,264.079102 1147.788940,266.489746 
	C1150.896606,274.348816 1154.187378,275.694672 1162.419434,273.341187 
	C1165.291626,272.520081 1166.234619,271.337555 1166.017212,268.587738 
	C1165.304443,259.576111 1164.556885,250.564606 1164.062500,241.539917 
	C1163.900146,238.574417 1162.535156,237.966171 1159.955811,237.971130 
	C1134.623047,238.019852 1109.290039,237.961105 1083.958008,238.096405 
	C1082.404297,238.104706 1079.653809,239.324631 1079.520630,240.270874 
	C1078.995117,244.003113 1078.721069,247.990402 1079.595459,251.580673 
	C1079.900757,252.834503 1083.773560,253.797592 1086.046265,253.861481 
	C1089.628906,253.962204 1090.055420,255.716492 1090.037842,258.627167 
	C1089.953491,272.626373 1090.000000,286.626312 1090.000000,300.626007 
	C1090.000000,310.296295 1090.000000,319.966553 1090.000000,330.088562 
	C1083.702271,330.041016 1079.633179,332.279572 1078.958252,339.019470 
	C1078.449951,344.096161 1080.357056,347.055176 1085.484863,346.950348 
	C1090.741699,346.842926 1095.993408,346.028839 1101.242310,346.077057 
	C1110.386353,346.161011 1119.524414,346.810242 1128.669189,346.962097 
	C1138.689331,347.128448 1148.718384,346.834839 1158.735229,347.079346 
	C1162.866089,347.180176 1164.604858,345.738373 1165.822632,341.719635 
	C1168.710938,332.188782 1168.978760,322.408783 1169.433105,312.646973 
	C1169.486938,311.491730 1167.156616,309.357605 1165.734375,309.169922 
	C1161.986328,308.675323 1158.129883,309.002594 1154.470215,309.002594 
	C1153.095215,311.802490 1151.874146,314.297028 1150.645630,316.787872 
	C1149.419434,319.274078 1148.022949,321.691589 1146.999268,324.258179 
	C1145.872559,327.083282 1144.181641,328.295349 1141.013794,328.071716 
	C1136.867798,327.779083 1132.685669,328.000000 1127.527222,328.000000 
M1438.508179,238.000000 
	C1434.676880,238.000137 1430.834839,237.834045 1427.019897,238.084244 
	C1425.544434,238.180984 1423.589844,238.815887 1422.778687,239.898651 
	C1418.268066,245.920197 1421.267822,252.621368 1428.742920,254.102249 
	C1429.959351,254.343246 1431.707764,255.785431 1431.856445,256.859833 
	C1432.509155,261.573914 1432.878418,266.353485 1432.954712,271.115631 
	C1433.107056,280.632843 1433.000000,290.154175 1433.000000,299.673828 
	C1433.000000,309.587158 1433.000000,319.500458 1433.000000,329.469421 
	C1429.826660,330.177551 1427.620850,330.273621 1425.835083,331.189148 
	C1424.307983,331.972137 1422.192505,333.706543 1422.206421,334.999939 
	C1422.247192,338.776978 1423.188477,342.550476 1423.904785,346.300934 
	C1423.956055,346.569336 1425.046509,346.793823 1425.647705,346.779572 
	C1435.581299,346.544342 1445.514404,346.046936 1455.446655,346.066193 
	C1464.205444,346.083160 1472.962646,346.907532 1481.721436,346.926971 
	C1489.311279,346.943817 1496.913574,346.469299 1504.481934,345.859955 
	C1505.721313,345.760162 1507.625244,343.984283 1507.844849,342.740021 
	C1509.428955,333.763916 1510.653076,324.724396 1512.002563,315.706696 
	C1512.507568,312.332581 1511.493774,309.062347 1507.935547,309.253845 
	C1503.796021,309.476562 1498.503052,306.160767 1495.543091,311.976044 
	C1492.880127,317.207764 1490.268677,322.465759 1487.618774,327.743530 
	C1478.234253,327.743530 1468.808960,327.743530 1459.291748,327.743530 
	C1459.291748,318.760529 1459.291748,310.036621 1459.291748,301.377411 
	C1468.480591,300.908234 1477.384155,299.994812 1486.265259,300.177521 
	C1491.344971,300.281982 1492.495972,297.811310 1492.973267,293.910919 
	C1493.252563,291.627502 1492.980713,289.232819 1493.540894,287.037140 
	C1494.551147,283.077362 1492.443848,281.309509 1489.219971,281.126282 
	C1485.309326,280.904114 1481.352051,281.716736 1477.411377,281.758698 
	C1471.299805,281.823730 1465.185303,281.615662 1459.274414,281.526428 
	C1459.274414,272.526215 1459.274414,264.924622 1459.274414,256.806152 
	C1462.501099,256.806152 1465.569580,257.325378 1468.396362,256.718475 
	C1482.495361,253.691528 1484.900879,254.823685 1490.497437,267.993591 
	C1490.878540,268.890167 1491.584595,269.665009 1491.876099,270.580322 
	C1492.993408,274.087036 1495.712891,274.301117 1498.661499,273.941986 
	C1499.937500,273.786560 1501.221069,272.932068 1502.424316,273.069122 
	C1508.154541,273.721924 1509.306519,270.306519 1508.962891,265.789093 
	C1508.441162,258.932556 1507.777710,252.082504 1506.980591,245.252350 
	C1506.132935,237.989594 1506.034180,238.000305 1498.973389,238.000153 
	C1479.150757,237.999710 1459.328247,238.000000 1438.508179,238.000000 
M870.500000,238.000015 
	C862.413757,238.318436 854.326721,238.908524 846.241394,238.885941 
	C836.320679,238.858261 826.385071,238.560532 816.488281,237.897079 
	C811.596069,237.569122 810.353577,240.560760 810.107178,243.991379 
	C809.467712,252.894302 809.173645,261.833069 809.140930,270.758972 
	C809.134583,272.480713 810.558411,275.228394 811.979614,275.766235 
	C820.154297,278.859741 823.035278,277.374115 826.336426,269.271301 
	C826.826599,268.068024 827.429749,266.910736 827.981445,265.732574 
	C833.337708,254.294220 829.424500,255.060028 842.250061,257.156403 
	C842.488342,257.195374 842.666992,257.599335 843.386841,258.413818 
	C843.386841,281.676331 843.386841,305.513092 843.386841,329.222198 
	C840.057922,330.270966 837.280029,331.025787 834.590271,332.019226 
	C829.381348,333.943085 831.095398,338.540039 831.116455,342.194672 
	C831.136414,345.662354 833.935791,346.076935 836.850525,346.028687 
	C842.697571,345.931915 848.547363,346.000061 854.395996,345.999969 
	C862.228577,345.999878 870.064758,346.119049 877.890503,345.887695 
	C879.273926,345.846771 881.233521,344.649048 881.829163,343.443146 
	C882.724976,341.629761 882.756042,339.348175 882.965576,337.246735 
	C883.253784,334.356628 882.360779,332.177063 879.124023,331.551605 
	C876.136841,330.974396 873.173767,330.272461 869.818604,329.542480 
	C869.818604,305.065430 869.818604,280.747406 869.818604,256.493195 
	C880.690491,255.222382 880.689941,255.222656 884.981445,263.885437 
	C885.632812,265.200195 886.525146,266.447601 886.904053,267.835876 
	C888.242126,272.738159 890.087585,275.985687 896.344727,276.387085 
	C903.471008,276.844208 903.937744,277.396667 904.956970,270.514221 
	C905.102051,269.534760 905.070618,268.510895 904.987549,267.518768 
	C904.343384,259.829926 903.456116,252.154099 903.079773,244.452942 
	C902.858337,239.921799 901.038391,237.908752 896.497253,237.968765 
	C888.166138,238.078903 879.832581,238.000061 870.500000,238.000015 
M767.940063,245.837402 
	C767.646790,245.248322 767.063477,244.637665 767.105408,244.073471 
	C767.505310,238.692749 764.430054,237.743179 759.925842,237.946030 
	C754.757935,238.178726 749.569580,237.910355 744.393433,238.018341 
	C732.980774,238.256378 721.570557,238.806793 710.158630,238.826172 
	C700.394897,238.842743 690.630066,238.132599 680.865967,238.138885 
	C678.912842,238.140137 675.381409,239.753937 675.255859,240.914093 
	C674.158875,251.048340 673.624634,261.245819 673.030212,271.430786 
	C672.848450,274.545624 674.226074,275.768280 677.667908,276.156342 
	C684.464966,276.922607 688.967712,275.126343 691.054565,268.182159 
	C691.980591,265.100647 693.645386,262.201141 695.271851,259.390930 
	C695.878601,258.342712 697.274658,257.225739 698.409668,257.109985 
	C701.485046,256.796356 704.613403,257.002472 707.286072,257.002472 
	C707.286072,281.633881 707.286072,305.675568 707.286072,329.543304 
	C705.019592,330.157135 703.472961,330.631012 701.900452,330.991852 
	C696.497253,332.231781 693.117371,339.026764 695.569214,344.024017 
	C695.980469,344.862244 697.059814,345.809753 697.925842,345.913849 
	C702.163086,346.423279 706.436951,346.991089 710.689941,346.935547 
	C721.280518,346.797272 731.873718,346.453125 742.447083,345.858612 
	C743.919495,345.775818 745.995605,344.103760 746.579712,342.672516 
	C749.149475,336.376068 746.730835,332.370697 740.000427,330.930267 
	C737.991943,330.500397 736.014160,329.927368 734.484924,329.537811 
	C734.484924,304.893829 734.484924,280.628632 734.484924,256.000580 
	C735.484924,256.000580 736.468750,256.128998 737.408508,255.979630 
	C743.314148,255.041061 747.193237,256.587677 748.786926,263.143768 
	C749.872559,267.609955 752.458557,271.711395 754.382751,275.996124 
	C758.014771,275.996124 761.378601,276.286713 764.644043,275.847137 
	C765.878052,275.681030 767.813660,273.856476 767.847961,272.739380 
	C768.114197,264.071167 767.993591,255.391129 767.940063,245.837402 
M1316.500000,238.000015 
	C1309.363403,238.134308 1302.220093,238.122070 1295.092285,238.449234 
	C1289.386230,238.711136 1290.146973,243.055634 1289.921265,246.984360 
	C1289.687378,251.054840 1291.522583,252.623657 1295.253662,253.036453 
	C1299.465576,253.502426 1301.232056,255.753418 1301.093750,260.248779 
	C1300.791138,270.089264 1301.000000,279.945404 1301.000000,289.795166 
	C1301.000000,303.025208 1301.000000,316.255249 1301.000000,329.056061 
	C1289.902100,332.787476 1290.089233,332.791504 1289.932373,340.083527 
	C1289.832275,344.736572 1291.858521,346.167786 1296.232544,346.058594 
	C1304.402710,345.854675 1312.584106,345.871399 1320.756226,346.033539 
	C1330.346558,346.223785 1339.930420,346.852753 1349.520020,346.930237 
	C1355.274292,346.976746 1361.051147,345.907990 1366.786377,346.135345 
	C1371.329468,346.315430 1373.417114,344.760712 1374.018433,340.401154 
	C1375.264038,331.369202 1376.917725,322.386597 1377.920410,313.330200 
	C1378.767456,305.681061 1377.832275,305.321442 1370.095703,304.879395 
	C1365.440308,304.613434 1362.957764,306.177887 1361.116333,310.364746 
	C1358.833008,315.556580 1355.981934,320.514221 1353.124512,325.426697 
	C1352.451172,326.584320 1350.794678,327.842438 1349.550903,327.884583 
	C1342.582764,328.120667 1335.602295,327.998230 1327.814453,327.998230 
	C1327.814453,303.671967 1327.814453,279.602875 1327.814453,255.625320 
	C1329.983032,254.999680 1331.661499,254.457153 1333.369141,254.032333 
	C1343.829468,251.430161 1341.700928,253.978271 1342.014038,243.131500 
	C1342.126953,239.223083 1340.149902,237.897659 1336.482666,237.967026 
	C1330.157104,238.086685 1323.827759,238.000076 1316.500000,238.000015 
M1024.065063,305.002991 
	C1022.397034,306.594421 1020.297607,307.923981 1019.142456,309.826782 
	C1015.791138,315.347443 1012.866943,321.125946 1009.634949,326.722321 
	C1009.244019,327.399292 1007.998901,327.925751 1007.142029,327.936920 
	C999.870422,328.031921 992.596985,327.991211 984.813416,327.991211 
	C984.813416,303.339966 984.813416,279.246338 984.813416,255.195587 
	C995.661865,254.635391 996.969543,253.374115 999.390442,244.331421 
	C1000.549438,240.002106 998.412048,238.390778 995.052734,238.129929 
	C991.839172,237.880402 988.539795,238.989151 985.287720,238.933945 
	C976.193054,238.779572 967.105774,238.199539 958.011047,238.036896 
	C948.757568,237.871399 948.248901,238.368958 947.073486,247.067184 
	C946.630066,250.348434 948.274414,252.328476 951.512268,252.982254 
	C953.671082,253.418152 955.829346,253.856613 958.399719,254.377365 
	C958.399719,279.658478 958.399719,304.491791 958.399719,329.098175 
	C947.794373,333.118347 947.951233,333.118835 947.925476,341.463196 
	C947.914612,344.966919 949.078186,346.128876 952.562317,346.062347 
	C962.081482,345.880585 971.606445,345.999969 981.129089,346.000000 
	C996.127625,346.000061 1011.126587,345.940979 1026.124146,346.059082 
	C1028.571777,346.078369 1030.496094,345.658081 1030.894897,343.108551 
	C1032.356323,333.765350 1034.346069,324.430634 1034.821777,315.026215 
	C1035.408203,303.434692 1036.614258,305.157410 1024.065063,305.002991 
M537.000000,310.703430 
	C537.251221,307.961304 536.547119,305.015381 533.566345,305.214966 
	C529.724609,305.472229 524.819763,302.360229 522.099731,307.662262 
	C519.200928,313.312775 516.561401,319.097076 513.621460,324.725189 
	C512.947021,326.016418 511.538696,327.799988 510.414551,327.839691 
	C502.674316,328.112915 494.919861,327.983307 486.701904,327.983307 
	C486.701904,303.305481 486.701904,279.321716 486.701904,255.541534 
	C490.544952,254.578430 493.645111,253.339996 496.820374,253.101440 
	C503.506195,252.599167 501.709656,247.678284 501.954163,243.907379 
	C502.218781,239.826859 499.986206,237.820526 495.960419,238.023483 
	C491.365662,238.255112 486.776093,238.980698 482.190826,238.927567 
	C472.933472,238.820343 463.681915,238.232132 454.424347,238.103760 
	C452.975983,238.083679 450.836609,239.076981 450.206970,240.243896 
	C449.255859,242.006577 449.239838,244.322678 449.026886,246.423920 
	C448.651154,250.131516 449.342285,252.868637 454.056488,253.133148 
	C459.507263,253.438980 461.118927,257.357849 460.959503,262.134735 
	C460.817108,266.399902 460.014557,270.657654 460.067474,274.911621 
	C460.172302,283.337067 460.815186,291.755096 460.960327,300.180908 
	C461.128174,309.924408 460.999420,319.673004 460.999420,328.959961 
	C450.718811,332.637726 450.893890,332.659363 449.865051,340.980896 
	C449.406586,344.689117 450.607086,345.976593 454.178406,346.030518 
	C471.760925,346.296173 489.340881,346.800751 506.923920,346.935425 
	C514.177551,346.990997 521.456787,346.537567 528.677307,345.832855 
	C530.221802,345.682129 532.591248,343.607910 532.830933,342.134979 
	C534.480652,331.998962 535.665588,321.787354 537.000000,310.703430 
M593.000000,312.350037 
	C592.515564,318.086395 592.031128,323.822723 591.541443,329.621857 
	C581.468628,332.868011 579.184692,337.029663 582.650208,345.545776 
	C590.860474,346.035614 598.930298,346.648590 607.011841,346.955109 
	C612.842773,347.176270 618.692566,347.105469 624.527283,346.935852 
	C627.436218,346.851257 629.905823,346.125702 630.062073,342.197968 
	C630.474243,331.835571 630.596191,331.845856 620.183716,329.919464 
	C619.772705,329.843445 619.415955,329.474304 619.000000,329.221069 
	C619.000000,319.951965 619.000000,310.786835 619.000000,301.621735 
	C619.000000,287.463806 619.071655,273.305176 618.940002,259.148468 
	C618.913391,256.286865 619.548767,254.791534 622.560364,253.900452 
	C629.692749,251.790100 630.177002,250.679428 630.039734,243.205154 
	C629.976196,239.746231 628.679810,237.967270 625.055847,237.981079 
	C612.064026,238.030579 599.071777,237.971054 586.080261,238.049377 
	C584.879639,238.056595 582.743408,238.574677 582.635986,239.152176 
	C581.895996,243.130035 581.031677,247.247223 581.465210,251.181015 
	C581.593750,252.347763 585.708374,253.646820 588.085571,253.851669 
	C591.156494,254.116302 592.010437,255.241333 592.048889,258.153076 
	C592.283752,275.905945 592.666504,293.656921 593.000000,312.350037 
z"/>
<path fill="#F4CE14" opacity="1.000000" stroke="none" 
	d="
M184.001709,74.165817 
	C188.105011,77.385437 192.101517,80.755814 196.352341,83.767197 
	C198.835159,85.526077 201.827408,86.550171 204.403458,88.197289 
	C207.318527,90.061165 210.031418,92.242798 212.818039,94.305420 
	C214.263336,95.375221 215.660110,96.510796 217.109467,97.574875 
	C225.799667,103.954887 234.594727,110.197266 243.157486,116.743645 
	C247.986282,120.435333 252.746094,124.321892 256.964600,128.675339 
	C260.583160,132.409653 263.278503,137.022049 266.592804,141.073807 
	C268.638885,143.575180 271.311279,145.573486 273.291077,148.117767 
	C276.585754,152.351852 279.575867,156.825104 282.644226,161.232437 
	C284.693634,164.176178 286.700745,167.151642 288.641602,170.167740 
	C289.861481,172.063385 291.018585,174.012268 292.038422,176.021255 
	C294.749359,181.361679 296.859253,187.091980 300.175140,192.016068 
	C303.323120,196.690811 303.990875,201.868820 305.587830,206.933945 
	C308.179749,215.154938 311.803955,223.045822 314.544281,231.226166 
	C316.711517,237.695831 320.018890,244.522308 319.552704,250.953476 
	C318.931915,259.517334 322.141968,266.857758 323.368958,274.771820 
	C323.619507,276.387939 323.962189,278.015106 323.971954,279.638977 
	C324.029083,289.161469 324.189758,298.690094 323.910339,308.204742 
	C323.792023,312.233978 322.566742,316.219666 322.078461,320.253418 
	C321.797485,322.574615 322.069336,324.957092 321.940948,327.303680 
	C321.734009,331.087036 321.631531,334.897675 321.075836,338.635986 
	C319.852783,346.863800 318.418365,355.061371 316.984863,363.256378 
	C315.972931,369.041260 315.364746,374.970764 313.632751,380.542328 
	C307.605042,399.932709 300.459076,419.004852 295.186646,438.587952 
	C292.610443,448.156555 286.902771,455.750702 283.294983,464.527252 
	C281.079102,469.917969 279.801666,475.690063 277.989929,481.254150 
	C277.494812,482.774780 276.931122,484.530670 275.822174,485.553162 
	C266.829926,493.844299 265.342529,505.284546 263.187469,516.262329 
	C262.358215,520.486328 264.319763,525.209045 263.786835,529.554565 
	C263.284698,533.649048 261.275208,537.585571 259.746246,541.520630 
	C257.720428,546.734436 253.060623,545.891907 248.855988,546.022888 
	C248.364120,546.038208 247.876236,546.181519 247.193253,546.632751 
	C243.969406,547.000000 240.938812,547.000000 237.334351,546.678711 
	C235.466583,545.362854 234.182571,544.354980 232.876923,543.376038 
	C228.956970,540.436890 225.022919,537.516602 221.105392,534.574219 
	C218.325577,532.486389 215.496185,530.456543 212.816742,528.245850 
	C210.969910,526.722168 209.606445,524.436646 207.568985,523.351135 
	C199.608948,519.110168 191.467880,515.208740 183.386581,511.196228 
	C183.103363,511.055603 182.730942,511.107910 182.415878,511.016144 
	C170.878677,507.656158 159.217010,504.664307 147.840668,500.826752 
	C134.477875,496.319122 122.400856,489.610443 112.930771,478.636078 
	C109.439095,474.589752 104.711029,471.602478 100.506218,468.182159 
	C97.846413,466.018585 94.687363,464.314301 92.485863,461.769379 
	C84.281052,452.284760 76.381737,442.535950 68.357872,432.894531 
	C67.933830,432.385040 67.499092,431.794464 66.934319,431.505951 
	C60.996872,428.472778 57.462227,423.101349 54.032051,417.800568 
	C50.084248,411.699829 46.932102,405.079285 42.912323,399.031494 
	C39.297897,393.593567 34.777039,388.764191 31.045214,383.395813 
	C28.937029,380.363159 27.571560,376.805206 25.947840,373.446991 
	C23.921707,369.256500 21.329565,365.205902 20.109133,360.783783 
	C15.835038,345.297089 12.530663,329.528473 7.841556,314.177399 
	C5.870224,307.723724 4.871408,301.516663 4.915589,294.895355 
	C4.937125,291.667877 3.904778,288.447296 3.648569,285.200012 
	C3.406412,282.130798 3.226649,278.990112 3.600849,275.952484 
	C4.412974,269.359924 4.185259,263.001709 1.000000,257.000000 
	C1.000000,252.975449 1.000000,248.950912 1.370053,244.265533 
	C2.159959,236.001740 2.629978,228.400925 2.954312,220.793884 
	C3.014057,219.392609 1.890820,217.744614 2.323100,216.587692 
	C4.920368,209.636597 7.789236,202.786133 10.615248,195.921753 
	C12.027724,192.490875 13.949289,189.214371 14.927487,185.671158 
	C17.098267,177.808228 19.097624,170.037384 24.089813,163.231506 
	C27.610460,158.431793 30.726570,153.141205 32.975372,147.641296 
	C38.446426,134.260742 42.135769,120.018799 48.782635,107.293808 
	C54.140774,97.036003 54.938927,86.631226 56.110458,75.812157 
	C56.901703,68.505043 56.136116,60.580376 62.049519,54.609406 
	C62.712234,53.940239 63.003956,52.905453 63.474541,52.043941 
	C68.345932,43.125805 76.232178,37.508732 85.011902,33.172272 
	C89.040886,31.182289 93.603073,30.117826 98.037338,29.161903 
	C100.574356,28.614983 103.340088,29.128994 106.186211,29.477011 
	C108.853401,29.777718 111.403397,30.117781 113.804008,29.665300 
	C116.685966,29.122093 119.380173,27.435282 122.261505,27.063213 
	C131.816681,25.829346 141.418686,24.956932 151.004257,23.960396 
	C154.292709,23.618521 157.611862,22.881498 160.871872,23.077065 
	C174.529282,23.896366 188.179184,24.887711 201.812668,26.042150 
	C210.472763,26.775459 219.099167,27.906528 227.740677,28.859226 
	C227.739822,29.327610 227.738968,29.795994 227.738113,30.264378 
	C226.066284,30.494305 224.399017,30.880592 222.721924,30.929426 
	C209.289474,31.320566 195.856339,31.703190 182.421188,31.981264 
	C164.328308,32.355743 146.233673,32.648403 128.139267,32.944263 
	C123.905785,33.013485 119.670212,32.954502 115.435608,32.954502 
	C114.928238,33.873802 114.420876,34.793102 113.913513,35.712402 
	C121.323822,42.315510 128.700317,48.957336 136.175751,55.485874 
	C137.514740,56.655254 139.176468,57.570225 140.835800,58.238728 
	C150.626297,62.183025 160.422485,66.119431 170.296356,69.847702 
	C174.770401,71.537079 179.427597,72.741432 184.001709,74.165817 
M119.482506,174.072021 
	C128.572250,178.152405 137.747055,182.055252 146.729401,186.359726 
	C157.103867,191.331314 167.304840,196.664566 177.593979,201.815170 
	C178.479095,202.258270 179.529755,202.916489 180.383041,202.770538 
	C182.563507,202.397552 185.447540,202.257599 186.604843,200.842499 
	C187.833817,199.339706 187.854065,196.423813 187.600342,194.217209 
	C186.982071,188.840714 185.065796,183.503052 185.158401,178.175583 
	C185.456039,161.052246 183.067398,144.329880 180.212936,127.497620 
	C178.242813,115.880264 174.759018,104.784248 167.113525,96.590210 
	C156.905258,85.649544 147.686981,73.403137 134.687317,65.242271 
	C133.588577,64.552505 132.684128,63.525841 131.764542,62.582462 
	C124.923531,55.564415 118.364731,48.244530 111.194069,41.582626 
	C104.938400,35.770790 95.732841,34.643917 91.126930,43.659691 
	C84.712631,56.215275 75.470978,67.477875 73.342682,82.081573 
	C72.205330,89.885689 68.838829,97.722107 69.386848,105.334564 
	C70.308960,118.143608 71.570511,131.391449 80.448051,142.064545 
	C81.714325,143.586945 82.400558,145.616028 83.743317,147.046265 
	C88.930595,152.571518 93.756905,158.625336 99.709908,163.187531 
	C105.426704,167.568726 112.371628,170.347412 119.482506,174.072021 
z"/>
<path fill="none" opacity="1.000000" stroke="none" 
	d="
M1.000000,257.468658 
	C4.185259,263.001709 4.412974,269.359924 3.600849,275.952484 
	C3.226649,278.990112 3.406412,282.130798 3.648569,285.200012 
	C3.904778,288.447296 4.937125,291.667877 4.915589,294.895355 
	C4.871408,301.516663 5.870224,307.723724 7.841556,314.177399 
	C12.530663,329.528473 15.835038,345.297089 20.109133,360.783783 
	C21.329565,365.205902 23.921707,369.256500 25.947840,373.446991 
	C27.571560,376.805206 28.937029,380.363159 31.045214,383.395813 
	C34.777039,388.764191 39.297897,393.593567 42.912323,399.031494 
	C46.932102,405.079285 50.084248,411.699829 54.032051,417.800568 
	C57.462227,423.101349 60.996872,428.472778 66.934319,431.505951 
	C67.499092,431.794464 67.933830,432.385040 68.357872,432.894531 
	C76.381737,442.535950 84.281052,452.284760 92.485863,461.769379 
	C94.687363,464.314301 97.846413,466.018585 100.506218,468.182159 
	C104.711029,471.602478 109.439095,474.589752 112.930771,478.636078 
	C122.400856,489.610443 134.477875,496.319122 147.840668,500.826752 
	C159.217010,504.664307 170.878677,507.656158 182.415878,511.016144 
	C182.730942,511.107910 183.103363,511.055603 183.386581,511.196228 
	C191.467880,515.208740 199.608948,519.110168 207.568985,523.351135 
	C209.606445,524.436646 210.969910,526.722168 212.816742,528.245850 
	C215.496185,530.456543 218.325577,532.486389 221.105392,534.574219 
	C225.022919,537.516602 228.956970,540.436890 232.876923,543.376038 
	C234.182571,544.354980 235.466583,545.362854 236.880249,546.678711 
	C158.398804,547.000000 79.797615,547.000000 1.000000,547.000000 
	C1.000000,450.645874 1.000000,354.291595 1.000000,257.468658 
z"/>
<path fill="none" opacity="1.000000" stroke="none" 
	d="
M106.002846,29.165339 
	C103.340088,29.128994 100.574356,28.614983 98.037338,29.161903 
	C93.603073,30.117826 89.040886,31.182289 85.011902,33.172272 
	C76.232178,37.508732 68.345932,43.125805 63.474541,52.043941 
	C63.003956,52.905453 62.712234,53.940239 62.049519,54.609406 
	C56.136116,60.580376 56.901703,68.505043 56.110458,75.812157 
	C54.938927,86.631226 54.140774,97.036003 48.782635,107.293808 
	C42.135769,120.018799 38.446426,134.260742 32.975372,147.641296 
	C30.726570,153.141205 27.610460,158.431793 24.089813,163.231506 
	C19.097624,170.037384 17.098267,177.808228 14.927487,185.671158 
	C13.949289,189.214371 12.027724,192.490875 10.615248,195.921753 
	C7.789236,202.786133 4.920368,209.636597 2.323100,216.587692 
	C1.890820,217.744614 3.014057,219.392609 2.954312,220.793884 
	C2.629978,228.400925 2.159959,236.001740 1.370053,243.802353 
	C1.000000,163.086929 1.000000,82.173859 1.000000,1.000000 
	C55.687286,1.000000 110.374985,1.000000 165.395264,1.351906 
	C155.329071,5.475221 144.215790,7.133296 134.691956,13.527225 
	C128.485474,17.694008 120.422630,18.480131 114.665291,23.948084 
	C112.278770,26.214647 108.919655,27.457134 106.002846,29.165339 
z"/>
<path fill="#495E57" opacity="1.000000" stroke="none" 
	d="
M106.186211,29.477013 
	C108.919655,27.457134 112.278770,26.214647 114.665291,23.948084 
	C120.422630,18.480131 128.485474,17.694008 134.691956,13.527225 
	C144.215790,7.133296 155.329071,5.475221 165.863922,1.351906 
	C176.687561,1.000000 187.375122,1.000000 198.531342,1.000000 
	C203.488052,2.062460 208.067413,2.841971 212.442581,4.254162 
	C218.890991,6.335544 225.128448,9.070090 231.575745,11.155462 
	C239.258255,13.640371 247.105652,15.612096 254.809906,18.034246 
	C260.947937,19.963984 267.052399,21.780308 271.222382,27.558765 
	C274.726349,32.414223 275.059540,37.564812 270.753784,41.719810 
	C260.921448,51.207901 249.020264,57.046307 236.114288,61.031090 
	C224.836716,64.513107 213.605042,68.176086 202.215546,71.249397 
	C196.590805,72.767166 190.655762,73.134941 184.431412,74.094437 
	C179.427597,72.741432 174.770401,71.537079 170.296356,69.847702 
	C160.422485,66.119431 150.626297,62.183025 140.835800,58.238728 
	C139.176468,57.570225 137.514740,56.655254 136.175751,55.485874 
	C128.700317,48.957336 121.323822,42.315510 113.913513,35.712402 
	C114.420876,34.793102 114.928238,33.873802 115.435608,32.954502 
	C119.670212,32.954502 123.905785,33.013485 128.139267,32.944263 
	C146.233673,32.648403 164.328308,32.355743 182.421188,31.981264 
	C195.856339,31.703190 209.289474,31.320566 222.721924,30.929426 
	C224.399017,30.880592 226.066284,30.494305 227.738113,30.264378 
	C227.738968,29.795994 227.739822,29.327610 227.740677,28.859226 
	C219.099167,27.906528 210.472763,26.775459 201.812668,26.042150 
	C188.179184,24.887711 174.529282,23.896366 160.871872,23.077065 
	C157.611862,22.881498 154.292709,23.618521 151.004257,23.960396 
	C141.418686,24.956932 131.816681,25.829346 122.261505,27.063213 
	C119.380173,27.435282 116.685966,29.122093 113.804008,29.665300 
	C111.403397,30.117781 108.853401,29.777718 106.186211,29.477013 
z"/>
<path fill="#495E57" opacity="1.000000" stroke="none" 
	d="
M2001.000000,250.539368 
	C1999.421143,251.756622 1997.888550,253.020050 1996.254272,253.169403 
	C1992.266235,253.533905 1991.708374,256.435059 1991.069092,259.335419 
	C1990.823730,260.449341 1991.001343,261.658386 1991.001221,262.824097 
	C1990.999390,280.004974 1991.000000,297.185822 1991.000000,314.366699 
	C1991.000000,323.368530 1990.885132,332.372589 1991.059082,341.371063 
	C1991.124756,344.768158 1989.812500,345.337524 1986.595581,346.210510 
	C1976.305664,349.002930 1970.211670,345.022858 1964.698730,336.496216 
	C1956.757812,324.214691 1947.666992,312.671539 1938.954590,300.896393 
	C1935.032104,295.594971 1930.838501,290.494202 1926.000000,284.322937 
	C1926.000000,291.689880 1926.130005,297.784302 1925.962891,303.870575 
	C1925.800049,309.799988 1925.150269,315.717804 1925.045166,321.646576 
	C1924.906494,329.466614 1925.123779,329.564728 1932.698364,331.031494 
	C1937.764526,332.012543 1939.045044,334.989899 1938.009521,343.013885 
	C1937.407715,347.677429 1933.941284,347.062958 1930.839111,346.980560 
	C1920.084961,346.694946 1909.334473,346.201538 1898.579102,346.075836 
	C1895.136475,346.035583 1893.910522,345.014832 1893.924316,341.486511 
	C1893.956177,333.317932 1893.867798,333.515198 1901.278809,330.734131 
	C1902.897949,330.126556 1904.742310,327.592560 1904.815063,325.875061 
	C1905.015869,321.138672 1904.009155,316.361145 1904.064819,311.606750 
	C1904.196533,300.349365 1904.734253,289.097321 1904.973999,277.840302 
	C1905.112427,271.336151 1905.095581,264.823090 1904.886230,258.322479 
	C1904.850220,257.202026 1903.587402,256.045990 1902.714600,255.063080 
	C1902.344971,254.646759 1901.513672,254.651062 1900.901611,254.437408 
	C1892.809692,251.612808 1890.894043,247.707535 1894.202026,239.928268 
	C1894.638306,238.902481 1896.843140,238.073074 1898.212036,238.097534 
	C1903.641357,238.194519 1909.349854,239.898392 1914.424805,238.721542 
	C1922.775024,236.785202 1925.758179,241.166229 1929.851074,247.025848 
	C1941.227051,263.312408 1953.492554,278.977478 1965.391724,294.899170 
	C1967.027344,297.087555 1968.578735,299.338928 1970.407227,301.893707 
	C1970.407227,285.895905 1970.407227,270.322266 1970.407227,254.572403 
	C1969.311646,254.300522 1968.741211,254.085571 1968.154785,254.024414 
	C1959.664551,253.139099 1956.792725,249.330704 1959.203613,241.314636 
	C1959.637817,239.870895 1962.264160,238.170685 1963.888916,238.159912 
	C1970.809570,238.114059 1977.731934,238.744690 1984.658936,238.938065 
	C1986.923218,239.001282 1989.205078,238.272552 1991.475830,238.291122 
	C1994.372925,238.314819 1997.266724,238.728989 2000.581055,238.987427 
	C2001.000000,242.692902 2001.000000,246.385818 2001.000000,250.539368 
z"/>
<path fill="#495E57" opacity="1.000000" stroke="none" 
	d="
M1569.968262,278.610413 
	C1570.328735,271.887634 1570.571411,265.622925 1571.037231,259.374847 
	C1571.288574,256.003143 1570.303711,254.335251 1566.630127,253.919388 
	C1559.073486,253.063934 1556.269409,246.518768 1560.635010,240.043274 
	C1561.384766,238.931061 1563.375122,238.107681 1564.805176,238.088257 
	C1576.297729,237.932175 1587.795776,237.890167 1599.285522,238.130692 
	C1600.856323,238.163589 1603.312988,239.616119 1603.800537,240.971924 
	C1609.385376,256.505127 1614.638550,272.157104 1620.045898,287.754669 
	C1622.111572,293.713318 1624.345337,299.613647 1626.755249,306.235077 
	C1631.608765,291.525177 1636.229004,277.271454 1641.028687,263.078461 
	C1643.511230,255.737747 1646.130493,248.428696 1649.117432,241.284836 
	C1649.743896,239.786163 1652.231567,238.184540 1653.898438,238.144089 
	C1665.219849,237.869415 1676.551514,237.961487 1687.879272,238.021545 
	C1691.814941,238.042435 1692.689087,240.147415 1692.617798,243.999878 
	C1692.479004,251.499924 1688.394897,254.301163 1681.326538,254.249969 
	C1682.903809,279.661041 1684.441040,304.427429 1685.989014,329.367615 
	C1687.068359,329.777130 1688.065552,330.220123 1689.101196,330.538361 
	C1697.743896,333.194672 1698.193726,333.622864 1696.819824,342.772247 
	C1696.581787,344.358673 1694.060425,346.774994 1692.544189,346.812653 
	C1679.558228,347.135101 1666.560669,346.988770 1653.566650,347.004303 
	C1650.239746,347.008301 1648.428955,345.351959 1648.008301,342.108154 
	C1647.153198,335.515015 1648.412720,331.640137 1652.759888,331.289429 
	C1659.594116,330.738068 1660.494263,327.102875 1660.056763,321.457245 
	C1659.018555,308.063141 1658.276611,294.646118 1656.571655,280.916321 
	C1654.717773,285.734711 1652.829590,290.540222 1651.016479,295.373871 
	C1645.671021,309.623077 1640.253906,323.847046 1635.113037,338.169952 
	C1634.077637,341.054657 1632.589722,342.079834 1629.731201,342.027679 
	C1624.407593,341.930511 1619.081055,341.999786 1613.025146,341.999786 
	C1605.554077,321.193146 1598.045654,300.282471 1590.056763,278.033875 
	C1588.996338,296.039520 1588.019653,312.621246 1587.016357,329.656433 
	C1589.032593,330.106934 1591.016113,330.834534 1593.032349,330.941315 
	C1597.205444,331.162292 1599.220825,332.707855 1599.089233,337.310059 
	C1598.840820,345.993256 1599.058105,345.870270 1590.544800,346.034607 
	C1581.116821,346.216583 1571.690430,346.591461 1562.270386,347.033264 
	C1557.881836,347.239105 1555.618652,346.158905 1555.882202,341.005157 
	C1556.303101,332.771393 1556.014160,332.845276 1563.515503,330.090027 
	C1564.878784,329.589325 1566.758179,328.086426 1566.854492,326.918793 
	C1567.761108,315.918976 1568.327515,304.891205 1569.002075,293.872101 
	C1569.304077,288.939148 1569.629028,284.007599 1569.968262,278.610413 
z"/>
<path fill="#495E57" opacity="1.000000" stroke="none" 
	d="
M1832.726807,251.329681 
	C1835.730713,255.998474 1838.834229,260.205078 1841.252563,264.774384 
	C1847.303467,276.207550 1848.013184,288.279297 1846.296753,301.049011 
	C1845.148193,309.593353 1843.520386,317.524414 1839.087158,325.026672 
	C1832.525269,336.131714 1822.488281,342.354340 1810.622559,345.576935 
	C1796.952881,349.289459 1782.893188,350.236145 1770.097778,342.864136 
	C1757.750122,335.750092 1748.564331,326.029083 1744.599731,311.262604 
	C1742.121704,302.033356 1741.171143,292.932373 1742.264038,283.956421 
	C1744.077881,269.059113 1749.800049,255.364059 1762.549683,246.260803 
	C1779.055420,234.475479 1797.120728,234.827988 1815.902344,240.229401 
	C1822.825439,242.220444 1827.079956,247.302322 1832.726807,251.329681 
M1815.993774,278.630157 
	C1813.988770,271.075012 1811.319702,263.569458 1804.471924,259.307129 
	C1800.423340,256.787079 1795.089111,254.969543 1790.407593,255.122147 
	C1781.588135,255.409637 1776.405884,261.193146 1773.951172,269.630920 
	C1771.021729,279.700745 1769.984497,289.812347 1771.985107,300.180817 
	C1773.743164,309.291504 1775.188110,318.329590 1783.721680,324.344116 
	C1796.265503,333.185242 1807.328247,330.811920 1813.779663,318.280853 
	C1820.153076,305.901306 1819.261475,292.642242 1815.993774,278.630157 
z"/>
<path fill="#495E57" opacity="1.000000" stroke="none" 
	d="
M1128.023193,328.000000 
	C1132.685669,328.000000 1136.867798,327.779083 1141.013794,328.071716 
	C1144.181641,328.295349 1145.872559,327.083282 1146.999268,324.258179 
	C1148.022949,321.691589 1149.419434,319.274078 1150.645630,316.787872 
	C1151.874146,314.297028 1153.095215,311.802490 1154.470215,309.002594 
	C1158.129883,309.002594 1161.986328,308.675323 1165.734375,309.169922 
	C1167.156616,309.357605 1169.486938,311.491730 1169.433105,312.646973 
	C1168.978760,322.408783 1168.710938,332.188782 1165.822632,341.719635 
	C1164.604858,345.738373 1162.866089,347.180176 1158.735229,347.079346 
	C1148.718384,346.834839 1138.689331,347.128448 1128.669189,346.962097 
	C1119.524414,346.810242 1110.386353,346.161011 1101.242310,346.077057 
	C1095.993408,346.028839 1090.741699,346.842926 1085.484863,346.950348 
	C1080.357056,347.055176 1078.449951,344.096161 1078.958252,339.019470 
	C1079.633179,332.279572 1083.702271,330.041016 1090.000000,330.088562 
	C1090.000000,319.966553 1090.000000,310.296295 1090.000000,300.626007 
	C1090.000000,286.626312 1089.953491,272.626373 1090.037842,258.627167 
	C1090.055420,255.716492 1089.628906,253.962204 1086.046265,253.861481 
	C1083.773560,253.797592 1079.900757,252.834503 1079.595459,251.580673 
	C1078.721069,247.990402 1078.995117,244.003113 1079.520630,240.270874 
	C1079.653809,239.324631 1082.404297,238.104706 1083.958008,238.096405 
	C1109.290039,237.961105 1134.623047,238.019852 1159.955811,237.971130 
	C1162.535156,237.966171 1163.900146,238.574417 1164.062500,241.539917 
	C1164.556885,250.564606 1165.304443,259.576111 1166.017212,268.587738 
	C1166.234619,271.337555 1165.291626,272.520081 1162.419434,273.341187 
	C1154.187378,275.694672 1150.896606,274.348816 1147.788940,266.489746 
	C1146.835693,264.079102 1145.939575,261.613708 1144.658325,259.379242 
	C1144.059204,258.334503 1142.650635,257.182220 1141.532715,257.098450 
	C1133.627930,256.506470 1125.703247,256.179260 1117.395142,255.747360 
	C1116.968750,264.574738 1116.559814,273.040009 1116.110229,282.347534 
	C1125.449829,281.888489 1134.484497,281.307648 1143.528442,281.043335 
	C1150.732056,280.832794 1151.277588,281.488403 1150.964600,288.680786 
	C1150.836914,291.615479 1150.548584,294.589325 1149.855835,297.428955 
	C1149.604248,298.460754 1148.016113,299.808502 1146.947510,299.894714 
	C1140.212769,300.438171 1133.454102,300.710876 1126.699707,300.979980 
	C1123.713745,301.098907 1120.718994,301.000000 1116.864746,301.000000 
	C1116.864746,310.016785 1116.864746,318.865417 1116.864746,328.000000 
	C1120.898560,328.000000 1124.212891,328.000000 1128.023193,328.000000 
z"/>
<path fill="#495E57" opacity="1.000000" stroke="none" 
	d="
M1439.006836,238.000000 
	C1459.328247,238.000000 1479.150757,237.999710 1498.973389,238.000153 
	C1506.034180,238.000305 1506.132935,237.989594 1506.980591,245.252350 
	C1507.777710,252.082504 1508.441162,258.932556 1508.962891,265.789093 
	C1509.306519,270.306519 1508.154541,273.721924 1502.424316,273.069122 
	C1501.221069,272.932068 1499.937500,273.786560 1498.661499,273.941986 
	C1495.712891,274.301117 1492.993408,274.087036 1491.876099,270.580322 
	C1491.584595,269.665009 1490.878540,268.890167 1490.497437,267.993591 
	C1484.900879,254.823685 1482.495361,253.691528 1468.396362,256.718475 
	C1465.569580,257.325378 1462.501099,256.806152 1459.274414,256.806152 
	C1459.274414,264.924622 1459.274414,272.526215 1459.274414,281.526428 
	C1465.185303,281.615662 1471.299805,281.823730 1477.411377,281.758698 
	C1481.352051,281.716736 1485.309326,280.904114 1489.219971,281.126282 
	C1492.443848,281.309509 1494.551147,283.077362 1493.540894,287.037140 
	C1492.980713,289.232819 1493.252563,291.627502 1492.973267,293.910919 
	C1492.495972,297.811310 1491.344971,300.281982 1486.265259,300.177521 
	C1477.384155,299.994812 1468.480591,300.908234 1459.291748,301.377411 
	C1459.291748,310.036621 1459.291748,318.760529 1459.291748,327.743530 
	C1468.808960,327.743530 1478.234253,327.743530 1487.618774,327.743530 
	C1490.268677,322.465759 1492.880127,317.207764 1495.543091,311.976044 
	C1498.503052,306.160767 1503.796021,309.476562 1507.935547,309.253845 
	C1511.493774,309.062347 1512.507568,312.332581 1512.002563,315.706696 
	C1510.653076,324.724396 1509.428955,333.763916 1507.844849,342.740021 
	C1507.625244,343.984283 1505.721313,345.760162 1504.481934,345.859955 
	C1496.913574,346.469299 1489.311279,346.943817 1481.721436,346.926971 
	C1472.962646,346.907532 1464.205444,346.083160 1455.446655,346.066193 
	C1445.514404,346.046936 1435.581299,346.544342 1425.647705,346.779572 
	C1425.046509,346.793823 1423.956055,346.569336 1423.904785,346.300934 
	C1423.188477,342.550476 1422.247192,338.776978 1422.206421,334.999939 
	C1422.192505,333.706543 1424.307983,331.972137 1425.835083,331.189148 
	C1427.620850,330.273621 1429.826660,330.177551 1433.000000,329.469421 
	C1433.000000,319.500458 1433.000000,309.587158 1433.000000,299.673828 
	C1433.000000,290.154175 1433.107056,280.632843 1432.954712,271.115631 
	C1432.878418,266.353485 1432.509155,261.573914 1431.856445,256.859833 
	C1431.707764,255.785431 1429.959351,254.343246 1428.742920,254.102249 
	C1421.267822,252.621368 1418.268066,245.920197 1422.778687,239.898651 
	C1423.589844,238.815887 1425.544434,238.180984 1427.019897,238.084244 
	C1430.834839,237.834045 1434.676880,238.000137 1439.006836,238.000000 
z"/>
<path fill="#495E57" opacity="1.000000" stroke="none" 
	d="
M871.000000,238.000000 
	C879.832581,238.000061 888.166138,238.078903 896.497253,237.968765 
	C901.038391,237.908752 902.858337,239.921799 903.079773,244.452942 
	C903.456116,252.154099 904.343384,259.829926 904.987549,267.518768 
	C905.070618,268.510895 905.102051,269.534760 904.956970,270.514221 
	C903.937744,277.396667 903.471008,276.844208 896.344727,276.387085 
	C890.087585,275.985687 888.242126,272.738159 886.904053,267.835876 
	C886.525146,266.447601 885.632812,265.200195 884.981445,263.885437 
	C880.689941,255.222656 880.690491,255.222382 869.818604,256.493195 
	C869.818604,280.747406 869.818604,305.065430 869.818604,329.542480 
	C873.173767,330.272461 876.136841,330.974396 879.124023,331.551605 
	C882.360779,332.177063 883.253784,334.356628 882.965576,337.246735 
	C882.756042,339.348175 882.724976,341.629761 881.829163,343.443146 
	C881.233521,344.649048 879.273926,345.846771 877.890503,345.887695 
	C870.064758,346.119049 862.228577,345.999878 854.395996,345.999969 
	C848.547363,346.000061 842.697571,345.931915 836.850525,346.028687 
	C833.935791,346.076935 831.136414,345.662354 831.116455,342.194672 
	C831.095398,338.540039 829.381348,333.943085 834.590271,332.019226 
	C837.280029,331.025787 840.057922,330.270966 843.386841,329.222198 
	C843.386841,305.513092 843.386841,281.676331 843.386841,258.413818 
	C842.666992,257.599335 842.488342,257.195374 842.250061,257.156403 
	C829.424500,255.060028 833.337708,254.294220 827.981445,265.732574 
	C827.429749,266.910736 826.826599,268.068024 826.336426,269.271301 
	C823.035278,277.374115 820.154297,278.859741 811.979614,275.766235 
	C810.558411,275.228394 809.134583,272.480713 809.140930,270.758972 
	C809.173645,261.833069 809.467712,252.894302 810.107178,243.991379 
	C810.353577,240.560760 811.596069,237.569122 816.488281,237.897079 
	C826.385071,238.560532 836.320679,238.858261 846.241394,238.885941 
	C854.326721,238.908524 862.413757,238.318436 871.000000,238.000000 
z"/>
<path fill="#495E57" opacity="1.000000" stroke="none" 
	d="
M767.966370,246.276062 
	C767.993591,255.391129 768.114197,264.071167 767.847961,272.739380 
	C767.813660,273.856476 765.878052,275.681030 764.644043,275.847137 
	C761.378601,276.286713 758.014771,275.996124 754.382751,275.996124 
	C752.458557,271.711395 749.872559,267.609955 748.786926,263.143768 
	C747.193237,256.587677 743.314148,255.041061 737.408508,255.979630 
	C736.468750,256.128998 735.484924,256.000580 734.484924,256.000580 
	C734.484924,280.628632 734.484924,304.893829 734.484924,329.537811 
	C736.014160,329.927368 737.991943,330.500397 740.000427,330.930267 
	C746.730835,332.370697 749.149475,336.376068 746.579712,342.672516 
	C745.995605,344.103760 743.919495,345.775818 742.447083,345.858612 
	C731.873718,346.453125 721.280518,346.797272 710.689941,346.935547 
	C706.436951,346.991089 702.163086,346.423279 697.925842,345.913849 
	C697.059814,345.809753 695.980469,344.862244 695.569214,344.024017 
	C693.117371,339.026764 696.497253,332.231781 701.900452,330.991852 
	C703.472961,330.631012 705.019592,330.157135 707.286072,329.543304 
	C707.286072,305.675568 707.286072,281.633881 707.286072,257.002472 
	C704.613403,257.002472 701.485046,256.796356 698.409668,257.109985 
	C697.274658,257.225739 695.878601,258.342712 695.271851,259.390930 
	C693.645386,262.201141 691.980591,265.100647 691.054565,268.182159 
	C688.967712,275.126343 684.464966,276.922607 677.667908,276.156342 
	C674.226074,275.768280 672.848450,274.545624 673.030212,271.430786 
	C673.624634,261.245819 674.158875,251.048340 675.255859,240.914093 
	C675.381409,239.753937 678.912842,238.140137 680.865967,238.138885 
	C690.630066,238.132599 700.394897,238.842743 710.158630,238.826172 
	C721.570557,238.806793 732.980774,238.256378 744.393433,238.018341 
	C749.569580,237.910355 754.757935,238.178726 759.925842,237.946030 
	C764.430054,237.743179 767.505310,238.692749 767.105408,244.073471 
	C767.063477,244.637665 767.646790,245.248322 767.966370,246.276062 
z"/>
<path fill="#495E57" opacity="1.000000" stroke="none" 
	d="
M1317.000000,238.000000 
	C1323.827759,238.000076 1330.157104,238.086685 1336.482666,237.967026 
	C1340.149902,237.897659 1342.126953,239.223083 1342.014038,243.131500 
	C1341.700928,253.978271 1343.829468,251.430161 1333.369141,254.032333 
	C1331.661499,254.457153 1329.983032,254.999680 1327.814453,255.625320 
	C1327.814453,279.602875 1327.814453,303.671967 1327.814453,327.998230 
	C1335.602295,327.998230 1342.582764,328.120667 1349.550903,327.884583 
	C1350.794678,327.842438 1352.451172,326.584320 1353.124512,325.426697 
	C1355.981934,320.514221 1358.833008,315.556580 1361.116333,310.364746 
	C1362.957764,306.177887 1365.440308,304.613434 1370.095703,304.879395 
	C1377.832275,305.321442 1378.767456,305.681061 1377.920410,313.330200 
	C1376.917725,322.386597 1375.264038,331.369202 1374.018433,340.401154 
	C1373.417114,344.760712 1371.329468,346.315430 1366.786377,346.135345 
	C1361.051147,345.907990 1355.274292,346.976746 1349.520020,346.930237 
	C1339.930420,346.852753 1330.346558,346.223785 1320.756226,346.033539 
	C1312.584106,345.871399 1304.402710,345.854675 1296.232544,346.058594 
	C1291.858521,346.167786 1289.832275,344.736572 1289.932373,340.083527 
	C1290.089233,332.791504 1289.902100,332.787476 1301.000000,329.056061 
	C1301.000000,316.255249 1301.000000,303.025208 1301.000000,289.795166 
	C1301.000000,279.945404 1300.791138,270.089264 1301.093750,260.248779 
	C1301.232056,255.753418 1299.465576,253.502426 1295.253662,253.036453 
	C1291.522583,252.623657 1289.687378,251.054840 1289.921265,246.984360 
	C1290.146973,243.055634 1289.386230,238.711136 1295.092285,238.449234 
	C1302.220093,238.122070 1309.363403,238.134308 1317.000000,238.000000 
z"/>
<path fill="#495E57" opacity="1.000000" stroke="none" 
	d="
M1024.501587,305.001648 
	C1036.614258,305.157410 1035.408203,303.434692 1034.821777,315.026215 
	C1034.346069,324.430634 1032.356323,333.765350 1030.894897,343.108551 
	C1030.496094,345.658081 1028.571777,346.078369 1026.124146,346.059082 
	C1011.126587,345.940979 996.127625,346.000061 981.129089,346.000000 
	C971.606445,345.999969 962.081482,345.880585 952.562317,346.062347 
	C949.078186,346.128876 947.914612,344.966919 947.925476,341.463196 
	C947.951233,333.118835 947.794373,333.118347 958.399719,329.098175 
	C958.399719,304.491791 958.399719,279.658478 958.399719,254.377365 
	C955.829346,253.856613 953.671082,253.418152 951.512268,252.982254 
	C948.274414,252.328476 946.630066,250.348434 947.073486,247.067184 
	C948.248901,238.368958 948.757568,237.871399 958.011047,238.036896 
	C967.105774,238.199539 976.193054,238.779572 985.287720,238.933945 
	C988.539795,238.989151 991.839172,237.880402 995.052734,238.129929 
	C998.412048,238.390778 1000.549438,240.002106 999.390442,244.331421 
	C996.969543,253.374115 995.661865,254.635391 984.813416,255.195587 
	C984.813416,279.246338 984.813416,303.339966 984.813416,327.991211 
	C992.596985,327.991211 999.870422,328.031921 1007.142029,327.936920 
	C1007.998901,327.925751 1009.244019,327.399292 1009.634949,326.722321 
	C1012.866943,321.125946 1015.791138,315.347443 1019.142456,309.826782 
	C1020.297607,307.923981 1022.397034,306.594421 1024.501587,305.001648 
z"/>
<path fill="#495E57" opacity="1.000000" stroke="none" 
	d="
M537.000000,311.151733 
	C535.665588,321.787354 534.480652,331.998962 532.830933,342.134979 
	C532.591248,343.607910 530.221802,345.682129 528.677307,345.832855 
	C521.456787,346.537567 514.177551,346.990997 506.923920,346.935425 
	C489.340881,346.800751 471.760925,346.296173 454.178406,346.030518 
	C450.607086,345.976593 449.406586,344.689117 449.865051,340.980896 
	C450.893890,332.659363 450.718811,332.637726 460.999420,328.959961 
	C460.999420,319.673004 461.128174,309.924408 460.960327,300.180908 
	C460.815186,291.755096 460.172302,283.337067 460.067474,274.911621 
	C460.014557,270.657654 460.817108,266.399902 460.959503,262.134735 
	C461.118927,257.357849 459.507263,253.438980 454.056488,253.133148 
	C449.342285,252.868637 448.651154,250.131516 449.026886,246.423920 
	C449.239838,244.322678 449.255859,242.006577 450.206970,240.243896 
	C450.836609,239.076981 452.975983,238.083679 454.424347,238.103760 
	C463.681915,238.232132 472.933472,238.820343 482.190826,238.927567 
	C486.776093,238.980698 491.365662,238.255112 495.960419,238.023483 
	C499.986206,237.820526 502.218781,239.826859 501.954163,243.907379 
	C501.709656,247.678284 503.506195,252.599167 496.820374,253.101440 
	C493.645111,253.339996 490.544952,254.578430 486.701904,255.541534 
	C486.701904,279.321716 486.701904,303.305481 486.701904,327.983307 
	C494.919861,327.983307 502.674316,328.112915 510.414551,327.839691 
	C511.538696,327.799988 512.947021,326.016418 513.621460,324.725189 
	C516.561401,319.097076 519.200928,313.312775 522.099731,307.662262 
	C524.819763,302.360229 529.724609,305.472229 533.566345,305.214966 
	C536.547119,305.015381 537.251221,307.961304 537.000000,311.151733 
z"/>
<path fill="#495E57" opacity="1.000000" stroke="none" 
	d="
M593.000000,311.879272 
	C592.666504,293.656921 592.283752,275.905945 592.048889,258.153076 
	C592.010437,255.241333 591.156494,254.116302 588.085571,253.851669 
	C585.708374,253.646820 581.593750,252.347763 581.465210,251.181015 
	C581.031677,247.247223 581.895996,243.130035 582.635986,239.152176 
	C582.743408,238.574677 584.879639,238.056595 586.080261,238.049377 
	C599.071777,237.971054 612.064026,238.030579 625.055847,237.981079 
	C628.679810,237.967270 629.976196,239.746231 630.039734,243.205154 
	C630.177002,250.679428 629.692749,251.790100 622.560364,253.900452 
	C619.548767,254.791534 618.913391,256.286865 618.940002,259.148468 
	C619.071655,273.305176 619.000000,287.463806 619.000000,301.621735 
	C619.000000,310.786835 619.000000,319.951965 619.000000,329.221069 
	C619.415955,329.474304 619.772705,329.843445 620.183716,329.919464 
	C630.596191,331.845856 630.474243,331.835571 630.062073,342.197968 
	C629.905823,346.125702 627.436218,346.851257 624.527283,346.935852 
	C618.692566,347.105469 612.842773,347.176270 607.011841,346.955109 
	C598.930298,346.648590 590.860474,346.035614 582.650208,345.545776 
	C579.184692,337.029663 581.468628,332.868011 591.541443,329.621857 
	C592.031128,323.822723 592.515564,318.086395 593.000000,311.879272 
z"/>
<path fill="#4A5F57" opacity="1.000000" stroke="none" 
	d="
M119.129684,173.951141 
	C112.371628,170.347412 105.426704,167.568726 99.709908,163.187531 
	C93.756905,158.625336 88.930595,152.571518 83.743317,147.046265 
	C82.400558,145.616028 81.714325,143.586945 80.448051,142.064545 
	C71.570511,131.391449 70.308960,118.143608 69.386848,105.334564 
	C68.838829,97.722107 72.205330,89.885689 73.342682,82.081573 
	C75.470978,67.477875 84.712631,56.215275 91.126930,43.659691 
	C95.732841,34.643917 104.938400,35.770790 111.194069,41.582626 
	C118.364731,48.244530 124.923531,55.564415 131.764542,62.582462 
	C132.684128,63.525841 133.588577,64.552505 134.687317,65.242271 
	C147.686981,73.403137 156.905258,85.649544 167.113525,96.590210 
	C174.759018,104.784248 178.242813,115.880264 180.212936,127.497620 
	C183.067398,144.329880 185.456039,161.052246 185.158401,178.175583 
	C185.065796,183.503052 186.982071,188.840714 187.600342,194.217209 
	C187.854065,196.423813 187.833817,199.339706 186.604843,200.842499 
	C185.447540,202.257599 182.563507,202.397552 180.383041,202.770538 
	C179.529755,202.916489 178.479095,202.258270 177.593979,201.815170 
	C167.304840,196.664566 157.103867,191.331314 146.729401,186.359726 
	C137.747055,182.055252 128.572250,178.152405 119.129684,173.951141 
M163.950363,169.736618 
	C164.219589,169.673325 164.488831,169.610016 164.758057,169.546722 
	C164.555313,169.318115 164.352554,169.089508 164.051620,168.152695 
	C156.283295,153.713409 148.554703,139.252533 140.726898,124.845558 
	C137.638123,119.160706 134.244995,113.641495 131.141876,107.964088 
	C127.888977,102.012627 124.912018,95.909935 121.639923,89.969467 
	C118.521072,84.307228 115.388565,78.631149 111.862343,73.221718 
	C109.257454,69.225677 106.010460,65.648216 103.049545,61.884262 
	C102.674492,62.143269 102.299438,62.402275 101.924377,62.661282 
	C102.813484,66.492653 103.204628,70.527252 104.671944,74.122643 
	C114.713379,98.727295 125.336807,123.080589 140.344803,145.175262 
	C146.691910,154.519440 153.506287,163.578918 163.950363,169.736618 
z"/>
<path fill="none" opacity="1.000000" stroke="none" 
	d="
M1816.001953,279.049713 
	C1819.261475,292.642242 1820.153076,305.901306 1813.779663,318.280853 
	C1807.328247,330.811920 1796.265503,333.185242 1783.721680,324.344116 
	C1775.188110,318.329590 1773.743164,309.291504 1771.985107,300.180817 
	C1769.984497,289.812347 1771.021729,279.700745 1773.951172,269.630920 
	C1776.405884,261.193146 1781.588135,255.409637 1790.407593,255.122147 
	C1795.089111,254.969543 1800.423340,256.787079 1804.471924,259.307129 
	C1811.319702,263.569458 1813.988770,271.075012 1816.001953,279.049713 
z"/>
<path fill="#F0CB16" opacity="1.000000" stroke="none" 
	d="
M163.636032,169.357208 
	C153.506287,163.578918 146.691910,154.519440 140.344803,145.175262 
	C125.336807,123.080589 114.713379,98.727295 104.671944,74.122643 
	C103.204628,70.527252 102.813484,66.492653 101.924377,62.661282 
	C102.299438,62.402275 102.674492,62.143269 103.049545,61.884262 
	C106.010460,65.648216 109.257454,69.225677 111.862343,73.221718 
	C115.388565,78.631149 118.521072,84.307228 121.639923,89.969467 
	C124.912018,95.909935 127.888977,102.012627 131.141876,107.964088 
	C134.244995,113.641495 137.638123,119.160706 140.726898,124.845558 
	C148.554703,139.252533 156.283295,153.713409 163.971802,168.630402 
	C163.891983,169.108093 163.636032,169.357208 163.636032,169.357208 
z"/>
<path fill="#F0CB16" opacity="1.000000" stroke="none" 
	d="
M164.020905,168.984497 
	C164.352554,169.089508 164.555313,169.318115 164.758057,169.546722 
	C164.488831,169.610016 164.219589,169.673325 163.793198,169.546906 
	C163.636032,169.357208 163.891983,169.108093 164.020905,168.984497 
z"/>
</svg>